HIERARCHY
ROOT Hips
{
	OFFSET -0.001795 -0.223333 0.028219
	CHANNELS 6 Xposition Yposition Zposition Zrotation Yrotation Xrotation 
	JOINT LeftUpLeg
	{
		OFFSET 0.069520 -0.091406 -0.006815
		CHANNELS 3 Zrotation Yrotation Xrotation
		JOINT LeftLeg
		{
			OFFSET 0.034277 -0.375199 -0.004496
			CHANNELS 3 Zrotation Yrotation Xrotation
			JOINT LeftFoot
			{
				OFFSET -0.013596 -0.397961 -0.043693
				CHANNELS 3 Zrotation Yrotation Xrotation
				JOINT LeftToe
				{
					OFFSET 0.026358 -0.055791 0.119288
					CHANNELS 3 Zrotation Yrotation Xrotation
					End Site
					{
						OFFSET 0.000000 0.000000 0.000000
					}
				}
			}
		}
	}
	JOINT RightUpLeg
	{
		OFFSET -0.067670 -0.090522 -0.004320
		CHANNELS 3 Zrotation Yrotation Xrotation
		JOINT RightLeg
		{
			OFFSET -0.038290 -0.382569 -0.008850
			CHANNELS 3 Zrotation Yrotation Xrotation
			JOINT RightFoot
			{
				OFFSET 0.015774 -0.398415 -0.042312
				CHANNELS 3 Zrotation Yrotation Xrotation
				JOINT RightToe
				{
					OFFSET -0.025372 -0.048144 0.123348
					CHANNELS 3 Zrotation Yrotation Xrotation
					End Site
					{
						OFFSET 0.000000 0.000000 0.000000
					}
				}
			}
		}
	}
	JOINT Spine
	{
		OFFSET -0.002533 0.108963 -0.026696
		CHANNELS 3 Zrotation Yrotation Xrotation
		JOINT Spine1
		{
			OFFSET 0.005487 0.135180 0.001092
			CHANNELS 3 Zrotation Yrotation Xrotation
			JOINT Spine2
			{
				OFFSET 0.001457 0.052922 0.025425
				CHANNELS 3 Zrotation Yrotation Xrotation
				JOINT Neck
				{
					OFFSET -0.002778 0.213870 -0.042857
					CHANNELS 3 Zrotation Yrotation Xrotation
					JOINT Head
					{
						OFFSET 0.005152 0.064970 0.051349
						CHANNELS 3 Zrotation Yrotation Xrotation
						End Site
						{
							OFFSET 0.000000 0.000000 0.000000
						}
					}
				}
				JOINT LeftShoulder
				{
					OFFSET 0.078845 0.121749 -0.034090
					CHANNELS 3 Zrotation Yrotation Xrotation
					JOINT LeftArm
					{
						OFFSET 0.090977 0.030469 -0.008868
						CHANNELS 3 Zrotation Yrotation Xrotation
						JOINT LeftForeArm
						{
							OFFSET 0.259612 -0.012772 -0.027456
							CHANNELS 3 Zrotation Yrotation Xrotation
							JOINT LeftHand
							{
								OFFSET 0.249234 0.008986 -0.001171
								CHANNELS 3 Zrotation Yrotation Xrotation
								End Site
								{
									OFFSET 0.000000 0.000000 0.000000
								}
							}
						}
					}
				}
				JOINT RightShoulder
				{
					OFFSET -0.081759 0.118833 -0.038615
					CHANNELS 3 Zrotation Yrotation Xrotation
					JOINT RightArm
					{
						OFFSET -0.096012 0.032551 -0.009143
						CHANNELS 3 Zrotation Yrotation Xrotation
						JOINT RightForeArm
						{
							OFFSET -0.253742 -0.013329 -0.021401
							CHANNELS 3 Zrotation Yrotation Xrotation
							JOINT RightHand
							{
								OFFSET -0.255298 0.007772 -0.005559
								CHANNELS 3 Zrotation Yrotation Xrotation
								End Site
								{
									OFFSET 0.000000 0.000000 0.000000
								}
							}
						}
					}
				}
			}
		}
	}
}
MOTION
Frames: 13
Frame Time: 0.050000
0.388421 0.957572 -1.385221 -2.560180 -12.146342 7.603776 8.899425 -0.011960 -10.792619 -8.058939 1.783400 10.636344 15.809479 28.086574 14.773458 0.000000 0.000000 0.000000 -5.673615 1.808279 -20.829898 4.785707 0.063911 18.206069 -1.336011 -5.917907 4.394331 0.000000 0.000000 0.000000 9.091804 -0.355659 1.229688 -0.618998 0.542952 -23.968259 -4.144156 -3.176278 23.682715 3.712789 -2.021495 -26.920995 0.000000 0.000000 0.000000 14.525892 -23.136671 4.465814 -17.570804 -44.957593 3.955195 49.229767 -13.896258 -3.768452 0.000000 0.000000 0.000000 10.415194 3.355633 -0.800736 65.579534 0.708007 -9.015016 -3.179566 32.698736 -0.282656 0.000000 0.000000 0.000000 
0.381046 0.957765 -1.386407 -2.270353 -11.402227 7.659226 8.953803 -0.031202 -11.082219 -8.137771 1.809540 11.170883 14.890989 26.941883 13.960085 0.000000 0.000000 0.000000 -5.636700 1.769939 -20.704910 4.939291 0.000313 18.452432 -1.172445 -5.535204 4.461868 0.000000 0.000000 0.000000 9.173117 -0.288937 0.611663 -1.225590 0.693726 -23.834554 -3.608306 -3.177936 23.563393 3.459179 -1.878953 -26.196040 0.000000 0.000000 0.000000 14.256599 -22.654438 4.456834 -18.956993 -44.614048 4.234304 50.457418 -15.629974 -4.596881 0.000000 0.000000 0.000000 10.197883 3.473664 -0.628827 65.268599 0.706149 -8.926096 -3.161333 33.512275 -0.247983 0.000000 0.000000 0.000000 
0.374519 0.958165 -1.387646 -1.794769 -10.564405 7.706906 8.717193 -0.087545 -11.329715 -7.746023 1.720947 11.831373 13.684560 25.271564 13.435149 0.000000 0.000000 0.000000 -5.920886 1.629186 -19.847392 5.152775 -0.122514 17.595664 -1.352366 -5.619877 3.919864 0.000000 0.000000 0.000000 9.322752 -0.175641 -0.377320 -2.119905 0.915803 -23.623440 -3.351597 -2.882470 23.579609 4.060331 -2.144115 -25.642322 0.000000 0.000000 0.000000 13.726568 -21.545980 4.374389 -21.397753 -43.696440 4.630444 51.820526 -19.664036 -6.497054 0.000000 0.000000 0.000000 10.475014 3.036494 -0.731168 64.539432 1.100251 -8.500366 -2.817091 33.998802 -0.077400 0.000000 0.000000 0.000000 
0.369053 0.957760 -1.389278 -1.459752 -9.096562 7.877167 8.990676 -0.107914 -11.918227 -8.016544 1.771684 12.548699 12.625287 23.846693 12.732293 0.000000 0.000000 0.000000 -6.171892 1.535990 -19.699115 5.799042 -0.345840 17.580628 -1.546382 -5.873352 3.683169 0.000000 0.000000 0.000000 9.284375 -0.049136 -1.499941 -2.877959 1.118234 -23.290542 -2.921828 -2.643910 23.764109 4.252471 -2.116544 -25.391930 0.000000 0.000000 0.000000 12.815703 -20.673017 4.453289 -24.073875 -42.741453 4.983109 53.974624 -24.163755 -8.977248 0.000000 0.000000 0.000000 10.597353 2.661983 -0.718048 63.561023 1.672684 -7.963299 -2.491504 34.614704 0.135838 0.000000 0.000000 0.000000 
0.365015 0.957544 -1.391347 -1.042375 -8.155499 7.965032 8.655874 -0.178389 -12.632296 -7.850722 1.744984 13.473647 11.895386 22.881661 11.872166 0.000000 0.000000 0.000000 -6.674069 1.403877 -19.104387 6.133606 -0.487107 16.618330 -1.790633 -6.218412 3.318392 0.000000 0.000000 0.000000 9.297096 0.042628 -2.307371 -3.811121 1.361938 -23.082852 -2.572580 -2.236856 23.899286 4.585539 -2.180402 -25.212720 0.000000 0.000000 0.000000 11.491822 -19.779512 4.591207 -26.550084 -41.352327 5.126088 55.012800 -28.740473 -11.468385 0.000000 0.000000 0.000000 10.585792 2.830693 -0.474039 62.258379 2.627683 -7.215872 -2.398066 34.983679 0.264955 0.000000 0.000000 0.000000 
0.362448 0.957111 -1.393535 -0.714064 -6.717298 8.062968 8.532534 -0.244084 -13.403634 -7.964395 1.722508 13.818932 10.926194 21.505286 11.218834 0.000000 0.000000 0.000000 -7.007976 1.278416 -18.534058 6.589515 -0.665868 15.697738 -2.272928 -7.259348 3.309671 0.000000 0.000000 0.000000 9.212584 0.115992 -3.009298 -4.534992 1.568537 -22.650780 -2.323721 -1.794268 23.806610 4.901296 -2.244260 -24.391846 0.000000 0.000000 0.000000 10.440090 -19.628889 4.857919 -28.071134 -40.453073 5.071102 55.177976 -32.180040 -13.424314 0.000000 0.000000 0.000000 11.339156 2.709707 -0.406699 59.884283 3.343701 -6.419326 -1.939964 35.167499 0.516985 0.000000 0.000000 0.000000 
0.361110 0.957010 -1.395434 -0.455513 -6.264138 8.094007 7.870831 -0.335992 -13.594669 -7.590588 1.608938 13.922709 10.197583 20.429297 10.408787 0.000000 0.000000 0.000000 -7.588254 1.171907 -17.971166 7.176334 -0.815788 14.833632 -2.456105 -7.630490 3.249919 0.000000 0.000000 0.000000 9.399247 0.137099 -3.215023 -5.315937 1.773564 -22.601838 -2.053246 -1.319409 23.799720 5.482264 -2.459458 -24.478852 0.000000 0.000000 0.000000 10.081638 -20.021678 5.073019 -28.928406 -39.710339 4.983957 54.799934 -32.968738 -13.840798 0.000000 0.000000 0.000000 11.533514 2.695480 -0.311090 58.466811 4.043989 -5.877282 -2.612308 34.684390 0.372640 0.000000 0.000000 0.000000 
0.360652 0.956775 -1.397152 -0.423717 -5.517964 8.191427 7.671263 -0.383933 -13.699970 -7.401332 1.505468 13.581741 9.348155 19.126358 9.637925 0.000000 0.000000 0.000000 -7.691255 1.107384 -17.423642 7.443709 -0.897805 13.827277 -2.730098 -8.359295 3.630661 0.000000 0.000000 0.000000 9.366034 0.188573 -3.691594 -5.628464 1.872846 -22.246273 -1.828719 -1.068756 23.724144 5.069223 -2.210424 -23.643965 0.000000 0.000000 0.000000 10.166373 -20.505781 5.215718 -29.033357 -40.336592 5.086612 54.284503 -32.881225 -13.803151 0.000000 0.000000 0.000000 11.796255 2.702832 -0.215759 56.776975 4.658750 -5.374636 -3.299913 34.317913 0.216380 0.000000 0.000000 0.000000 
0.360467 0.956642 -1.398685 -0.143084 -5.282196 8.157601 7.075061 -0.453819 -13.553987 -6.944290 1.354330 13.055504 8.695679 18.071065 9.121471 0.000000 0.000000 0.000000 -7.977849 1.045100 -16.873187 7.860324 -0.986029 13.221866 -2.929697 -8.802263 3.656163 0.000000 0.000000 0.000000 9.282240 0.221977 -3.968855 -6.247512 2.042291 -21.982157 -1.575388 -0.971225 23.696400 4.920569 -2.101090 -23.529722 0.000000 0.000000 0.000000 10.372569 -20.818606 5.265331 -28.048489 -41.394646 5.076536 52.948989 -31.368443 -12.786677 0.000000 0.000000 0.000000 11.993976 2.793835 -0.153586 56.246666 5.291546 -5.020470 -4.601520 32.820088 -0.130827 0.000000 0.000000 0.000000 
0.360311 0.956334 -1.400123 -0.021023 -4.864809 8.067917 6.871992 -0.484568 -13.481073 -7.117493 1.362636 12.746056 7.994931 16.908481 8.210204 0.000000 0.000000 0.000000 -7.908242 0.999577 -16.098267 8.181267 -1.050965 12.320235 -3.098832 -9.114001 3.524751 0.000000 0.000000 0.000000 9.104229 0.227742 -4.037632 -6.872546 2.216384 -21.854338 -1.168218 -1.228016 23.687016 4.080636 -1.694756 -22.707039 0.000000 0.000000 0.000000 10.787303 -21.013983 5.226600 -27.075931 -42.750619 5.156309 51.492587 -29.919022 -11.752181 0.000000 0.000000 0.000000 11.996441 2.534922 -0.267538 56.297387 5.457510 -4.961150 -5.704795 32.178920 -0.414936 0.000000 0.000000 0.000000 
0.359788 0.956035 -1.401257 0.242016 -4.880604 7.957473 6.251612 -0.544298 -13.320380 -6.687256 1.240594 12.311311 7.268856 15.643009 7.668458 0.000000 0.000000 0.000000 -7.889101 0.960258 -15.202846 8.243886 -1.039181 11.263639 -3.288881 -9.576410 3.660603 0.000000 0.000000 0.000000 8.698223 0.226788 -4.042024 -7.251380 2.315940 -21.877997 -1.197345 -1.442325 23.728779 4.212771 -1.868923 -22.097684 0.000000 0.000000 0.000000 11.220072 -21.321004 5.198604 -27.118735 -43.391170 5.385605 50.374682 -29.260543 -11.134235 0.000000 0.000000 0.000000 12.255354 2.555641 -0.320961 56.975278 5.586085 -4.964683 -6.743880 31.658208 -0.684341 0.000000 0.000000 0.000000 
0.358837 0.955733 -1.402050 0.509693 -4.843795 7.810443 6.129449 -0.550912 -13.096843 -6.936339 1.294103 12.237663 6.902890 14.989492 7.306136 0.000000 0.000000 0.000000 -7.711550 0.937314 -14.476734 8.289247 -1.029987 10.453544 -3.739920 -10.715417 4.154228 0.000000 0.000000 0.000000 8.168404 0.244113 -4.204413 -7.772057 2.458751 -21.771142 -0.938465 -1.846595 23.818724 4.224423 -1.995888 -21.535653 0.000000 0.000000 0.000000 10.998964 -20.862611 5.102571 -28.112496 -43.723753 5.809477 49.854912 -30.455680 -11.413303 0.000000 0.000000 0.000000 12.682894 2.047566 -0.667807 57.607782 4.804773 -5.409098 -6.749218 31.947649 -0.713444 0.000000 0.000000 0.000000 
0.357637 0.955550 -1.402684 0.574782 -5.461769 7.698148 6.042663 -0.538018 -12.923925 -7.159665 1.379095 12.362094 6.984012 15.104503 7.422365 0.000000 0.000000 0.000000 -7.356255 0.954106 -13.974779 8.478414 -1.020199 9.661652 -4.341906 -12.111501 4.384910 0.000000 0.000000 0.000000 7.947296 0.217775 -3.927048 -8.140522 2.547646 -21.781145 -1.090380 -1.742791 23.805418 4.527695 -2.245973 -21.248389 0.000000 0.000000 0.000000 10.732781 -20.490551 5.049110 -30.041907 -43.135151 6.257364 50.295832 -33.064914 -12.547089 0.000000 0.000000 0.000000 13.175384 1.291277 -1.138203 58.803973 3.487390 -6.167474 -5.717988 32.674244 -0.461922 0.000000 0.000000 0.000000 
